<?xml version="1.0" encoding="UTF-8"?><svg id="Lager_1" xmlns="http://www.w3.org/2000/svg" viewBox="0 0 488.5 326.5"><path d="M293,270.5c-14.1,0-25.5-11.4-25.5-25.5V82c0-14.1,11.4-25.5,25.5-25.5s25.5,11.4,25.5,25.5v163c0,14.1-11.4,25.5-25.5,25.5Z" style="fill:#fff;"/><path d="M293,57c13.8,0,25,11.2,25,25v163c0,13.8-11.2,25-25,25s-25-11.2-25-25V82c0-13.8,11.2-25,25-25M293,56h0c-14.4,0-26,11.6-26,26v163c0,14.4,11.6,26,26,26h0c14.4,0,26-11.6,26-26V82c0-14.4-11.6-26-26-26h0Z" style="fill:#fff;"/><path d="M462.5,326c-14.1,0-25.5-11.4-25.5-25.5V26c0-14.1,11.4-25.5,25.5-25.5s25.5,11.4,25.5,25.5v274.5c0,14.1-11.4,25.5-25.5,25.5Z" style="fill:#fff;"/><path d="M462.5,1c13.8,0,25,11.2,25,25v274.5c0,13.8-11.2,25-25,25s-25-11.2-25-25V26c0-13.8,11.2-25,25-25M462.5,0c-14.4,0-26,11.6-26,26v274.5c0,14.4,11.6,26,26,26s26-11.6,26-26V26c0-14.4-11.6-26-26-26h0Z" style="fill:#fff;"/><path d="M378,304.5c-14.1,0-25.5-11.4-25.5-25.5V48c0-14.1,11.4-25.5,25.5-25.5s25.5,11.4,25.5,25.5v231c0,14.1-11.4,25.5-25.5,25.5Z" style="fill:#fff;"/><path d="M378,23c13.8,0,25,11.2,25,25v231c0,13.8-11.2,25-25,25s-25-11.2-25-25V48c0-13.8,11.2-25,25-25M378,22h0c-14.4,0-26,11.6-26,26v231c0,14.4,11.6,26,26,26h0c14.4,0,26-11.6,26-26V48c0-14.4-11.6-26-26-26h0Z" style="fill:#fff;"/><path d="M206.5,270.6c-2.7,0-5.3-.6-7.8-1.8L11.9,179.2c-6.3-3-10.2-9.2-10.2-16.2s3.9-13.2,10.2-16.2L198.7,57c2.5-1.2,5.1-1.8,7.8-1.8,9.9,0,18,8.1,18,18v179.4c0,9.9-8.1,18-18,18Z" style="fill:#fff;"/><path d="M206.5,55.7h0c9.6,0,17.5,7.9,17.5,17.5v179.4c0,9.7-7.8,17.5-17.5,17.5s-5.2-.6-7.6-1.7L12.1,178.7c-6.1-2.9-9.9-9-9.9-15.8s3.8-12.8,9.9-15.8L198.9,57.5c2.4-1.2,5-1.7,7.6-1.7M206.5,54.7c-2.6,0-5.4.6-8,1.8L11.7,146.3c-14,6.7-14,26.6,0,33.3l186.9,89.7c2.6,1.3,5.3,1.8,8,1.8,9.7,0,18.5-7.8,18.5-18.5V73.3c0-10.7-8.8-18.5-18.5-18.5h0Z" style="fill:#fff;"/><rect x=".5" y="109.5" width="93" height="106" rx="19.5" ry="19.5" style="fill:#fff;"/><path d="M74,110c10.5,0,19,8.5,19,19v67c0,10.5-8.5,19-19,19H20c-10.5,0-19-8.5-19-19v-67c0-10.5,8.5-19,19-19h54M74,109H20c-11,0-20,9-20,20v67c0,11,9,20,20,20h54c11,0,20-9,20-20v-67c0-11-9-20-20-20h0Z" style="fill:#fff;"/></svg>