<?xml version="1.0" encoding="UTF-8"?><svg id="Lager_1" xmlns="http://www.w3.org/2000/svg" viewBox="0 0 171.3 193.3"><g style="opacity:.9;"><path d="M84.4,189.3c-14.3-.1-26.8-18.9-51.7-56.2C13.4,104.1,3.7,89.6,4,75.9c.4-16.2,9.5-34.2,24.4-48.3C44.6,12.4,65,4,85.6,4c44.7,0,81.2,39.3,81.6,71.9.2,13.3-9.6,27.6-29.2,56.1-25.3,36.9-39.3,57.3-53.5,57.3h-.2Z" style="fill:#399;"/><path d="M85.6,8c19.7,0,39.1,8,54.6,22.6,14.2,13.3,22.8,30.3,23,45.3.2,12-9.4,26-28.5,53.8-24.5,35.8-38.1,55.5-50.2,55.5h-.1c-12.2-.1-25-19.4-48.4-54.4-18.8-28.2-28.3-42.4-28-54.8C8.7,45.2,43.5,8,85.6,8h0M85.6,0C39.1,0,.8,40.8,0,75.9c-.3,14.9,9.6,29.8,29.4,59.4,25.7,38.6,38.6,57.8,55,58,0,0,.1,0,.2,0,16.4,0,29.9-19.7,56.8-59,20.1-29.3,30.1-43.9,29.9-58.4C170.8,40.9,132.3,0,85.6,0h0Z"/></g><rect x="36.1" y="48.8" width="100" height="55.4" rx="15" ry="15" style="fill:#fff;"/><path d="M121.1,49.8c7.7,0,14,6.3,14,14v25.4c0,7.7-6.3,14-14,14H51.1c-7.7,0-14-6.3-14-14v-25.4c0-7.7,6.3-14,14-14h70M121.1,47.8H51.1c-8.8,0-16,7.2-16,16v25.4c0,8.8,7.2,16,16,16h70c8.8,0,16-7.2,16-16v-25.4c0-8.8-7.2-16-16-16h0Z"/><path d="M67.3,93c-9.8,0-17.8-7.4-17.8-16.4s8-16.4,17.8-16.4,17.8,7.4,17.8,16.4-8,16.4-17.8,16.4Z" style="fill:#fff;"/><path d="M67.3,61.1c9.3,0,16.8,6.9,16.8,15.4s-7.5,15.4-16.8,15.4-16.8-6.9-16.8-15.4,7.5-15.4,16.8-15.4M67.3,59.1c-10.4,0-18.8,7.8-18.8,17.4s8.4,17.4,18.8,17.4,18.8-7.8,18.8-17.4-8.4-17.4-18.8-17.4h0Z"/><path d="M67.4,83.8c-4.1,0-7.4-3.3-7.4-7.5s3.3-7.5,7.4-7.5,7.4,3.3,7.4,7.5-3.3,7.5-7.4,7.5Z"/><path d="M67.4,69.9c3.6,0,6.4,2.9,6.4,6.5s-2.9,6.5-6.4,6.5-6.4-2.9-6.4-6.5,2.9-6.5,6.4-6.5M67.4,67.9c-4.7,0-8.4,3.8-8.4,8.5s3.8,8.5,8.4,8.5,8.4-3.8,8.4-8.5-3.8-8.5-8.4-8.5h0Z"/><path d="M108.9,63c-.8,0-1.5-.7-1.5-1.5s.7-1.5,1.5-1.5,1.5.7,1.5,1.5-.7,1.5-1.5,1.5Z"/><path d="M108.9,61.1c.3,0,.5.2.5.5s-.2.5-.5.5-.5-.2-.5-.5.2-.5.5-.5M108.9,59.1c-1.4,0-2.5,1.1-2.5,2.5s1.1,2.5,2.5,2.5,2.5-1.1,2.5-2.5-1.1-2.5-2.5-2.5h0Z"/><path d="M120.9,63c-.8,0-1.5-.7-1.5-1.5s.7-1.5,1.5-1.5,1.5.7,1.5,1.5-.7,1.5-1.5,1.5Z"/><path d="M120.9,61.1c.3,0,.5.2.5.5s-.2.5-.5.5-.5-.2-.5-.5.2-.5.5-.5M120.9,59.1c-1.4,0-2.5,1.1-2.5,2.5s1.1,2.5,2.5,2.5,2.5-1.1,2.5-2.5-1.1-2.5-2.5-2.5h0Z"/><path d="M102.4,64.1c-1.3,0-2.3-1.1-2.3-2.3s1.1-2.3,2.3-2.3,2.3,1.1,2.3,2.3-1,2.3-2.3,2.3Z"/><path d="M102.4,60.4c.7,0,1.3.6,1.3,1.3s-.6,1.3-1.3,1.3-1.3-.6-1.3-1.3.6-1.3,1.3-1.3M102.4,58.4c-1.8,0-3.3,1.5-3.3,3.3s1.5,3.3,3.3,3.3,3.3-1.5,3.3-3.3-1.5-3.3-3.3-3.3h0Z"/><path d="M115.4,46.8c-.7,0-1.3-.6-1.3-1.3s.6-1.3,1.3-1.3h6c.7,0,1.3.6,1.3,1.3s-.6,1.3-1.3,1.3h-6Z"/><path d="M121.4,45.2c.2,0,.3.1.3.3s-.1.3-.3.3h-6c-.2,0-.3-.1-.3-.3s.1-.3.3-.3h6M121.4,43.2h-6c-1.3,0-2.3,1-2.3,2.3s1,2.3,2.3,2.3h6c1.3,0,2.3-1,2.3-2.3s-1-2.3-2.3-2.3h0Z"/></svg>