<?xml version="1.0" encoding="UTF-8"?><svg id="Lager_1" xmlns="http://www.w3.org/2000/svg" viewBox="0 0 171.3 193.3"><g style="opacity:.9;"><path d="M84.4,189.3c-14.3-.1-26.8-18.9-51.7-56.2C13.4,104.1,3.7,89.6,4,75.9c.4-16.2,9.5-34.2,24.4-48.3C44.6,12.4,65,4,85.6,4c44.7,0,81.2,39.3,81.6,71.9.2,13.3-9.6,27.6-29.2,56.1-25.3,36.9-39.3,57.3-53.5,57.3h-.2Z" style="fill:#fff;"/><path d="M85.6,8c19.7,0,39.1,8,54.6,22.6,14.2,13.3,22.8,30.3,23,45.3.2,12-9.4,26-28.5,53.8-24.5,35.8-38.1,55.5-50.2,55.5h-.1c-12.2-.1-25-19.4-48.4-54.4-18.8-28.2-28.3-42.4-28-54.8C8.7,45.2,43.5,8,85.6,8h0M85.6,0C39.1,0,.8,40.8,0,75.9c-.3,14.9,9.6,29.8,29.4,59.4,25.7,38.6,38.6,57.8,55,58,0,0,.1,0,.2,0,16.4,0,29.9-19.7,56.8-59,20.1-29.3,30.1-43.9,29.9-58.4C170.8,40.9,132.3,0,85.6,0h0Z"/></g><path d="M105,39.3v7c1.8,0,3.7.2,5.5.5,6.9,1.3,12.6,4.8,15.7,9.7,1.5,2.4,3,6.3,1.7,11-2.3,8.2-11.9,14.1-22.8,14.1s-3.7-.2-5.5-.5c-6.9-1.3-12.6-4.8-15.7-9.7-1.5-2.4-3-6.3-1.7-11,2.3-8.2,11.9-14.1,22.8-14.1v-7M105,39.3c-13.8,0-26.3,7.8-29.5,19.2-3.7,13.3,6.5,26.5,22.8,29.5,2.3.4,4.5.6,6.8.6,13.8,0,26.3-7.8,29.5-19.2,3.7-13.3-6.5-26.5-22.8-29.5-2.3-.4-4.5-.6-6.8-.6h0Z"/><line x1="89.1" y1="81.5" x2="51.4" y2="117.3" style="fill:none; stroke:#000; stroke-miterlimit:10; stroke-width:7px;"/></svg>