<?xml version="1.0" encoding="UTF-8"?><svg xmlns="http://www.w3.org/2000/svg" viewBox="0 0 173 200"><g id="Lager_2"><path d="M67,199.5c-36.7,0-66.5-12.3-66.5-27.5s29.8-27.5,66.5-27.5,66.5,12.3,66.5,27.5-29.8,27.5-66.5,27.5Z" style="fill:#c1412d;"/><path d="M67,145c17.8,0,34.5,2.9,47,8.1,12.3,5.1,19,11.8,19,18.9s-6.8,13.8-19,18.9c-12.5,5.2-29.2,8.1-47,8.1s-34.5-2.9-47-8.1c-12.3-5.1-19-11.8-19-18.9s6.8-13.8,19-18.9c12.5-5.2,29.2-8.1,47-8.1M67,144c-37,0-67,12.5-67,28s30,28,67,28,67-12.5,67-28-30-28-67-28h0Z"/></g><g id="Lager_1"><rect x="16.5" y="1.5" width="155" height="78" style="fill:#c5b297;"/><path d="M170,3v75H18V3h152M173,0H15v81h158V0h0Z" style="fill:#603813;"/><rect x="81.5" y="82.5" width="26" height="88" style="fill:#603813;"/><path d="M106,84v85h-23v-85h23M109,81h-29v91h29v-91h0Z" style="fill:#603813;"/></g></svg>